# xmcd
#
# Track frame offsets:
# 150
# 17160
# 33605
# 47915
# 70586
# 92319
# 113478
# 136081
# 152896
# 169539
# 185314
# 201669
# 220405
# 242109
# 260257
# 274451
#
# Disc length: 3911 seconds
#
#
# Revision: 0
# Processed by: cddbd v1.5.1PL0 Copyright (c) Steve Scherf et al.
# Submitted via: FreeRIP 2.91 
#
DISCID=e10f4510
DTITLE=TIM MCGRAW - LIVE LIKE YOU WERE DYING
DYEAR=2004
DGENRE=Country
TTITLE0=HOW BAD DO YOU WANT IT
TTITLE1=MY OLD FRIEND
TTITLE2=CAN'T TELL ME NOTHIN'
TTITLE3=OLD NEW TOWN
TTITLE4=LIVE LIKE YOU WERE DYING
TTITLE5=DRUGS OR JESUS
TTITLE6=BACK WHEN
TTITLE7=SOMETHING'S BROKEN
TTITLE8=OPEN SEASON ON MY HEART
TTITLE9=EVERYBODY HATES ME
TTITLE10=WALK LIKE A MAN
TTITLE11=BLANK SHEET OF PAPER
TTITLE12=JUST BE YOUR TEAR
TTITLE13=DO YOU WANT FRIES WITH THAT
TTITLE14=KILL MYSELF
TTITLE15=WE CARRY ON
EXTD=
EXTT0=
EXTT1=
EXTT2=
EXTT3=
EXTT4=
EXTT5=
EXTT6=
EXTT7=
EXTT8=
EXTT9=
EXTT10=
EXTT11=
EXTT12=
EXTT13=
EXTT14=
EXTT15=
PLAYORDER=
